STARTFONT 2.1
COMMENT
COMMENT Converted from OpenType font "CircularStd-Bold.otf" by "otf2bdf 3.0".
COMMENT
FONT -FreeType-Circular Std Bold-Medium-R-Normal--22-160-100-100-P-116-ISO10646-1
SIZE 16 100 100
FONTBOUNDINGBOX 35 25 -1 -5
STARTPROPERTIES 19
FOUNDRY "FreeType"
FAMILY_NAME "Circular Std Bold"
WEIGHT_NAME "Medium"
SLANT "R"
SETWIDTH_NAME "Normal"
ADD_STYLE_NAME ""
PIXEL_SIZE 22
POINT_SIZE 160
RESOLUTION_X 100
RESOLUTION_Y 100
SPACING "P"
AVERAGE_WIDTH 116
CHARSET_REGISTRY "ISO10646"
CHARSET_ENCODING "1"
FONT_ASCENT 21
FONT_DESCENT 5
COPYRIGHT "Generated in 2013 by FontLab Studio. Copyright info pending."
_OTF_FONTFILE "CircularStd-Bold.otf"
_OTF_PSNAME "CircularStd-Bold"
ENDPROPERTIES
CHARS 332
STARTCHAR 0000
ENCODING 0
SWIDTH 0 0
DWIDTH 0 0
BBX 0 0 0 0
BITMAP
ENDCHAR
STARTCHAR 000D
ENCODING 13
SWIDTH 225 0
DWIDTH 5 0
BBX 0 0 0 0
BITMAP
ENDCHAR
STARTCHAR 0020
ENCODING 32
SWIDTH 225 0
DWIDTH 5 0
BBX 0 0 0 0
BITMAP
ENDCHAR
STARTCHAR 0021
ENCODING 33
SWIDTH 315 0
DWIDTH 7 0
BBX 3 16 2 0
BITMAP
E0
E0
E0
E0
E0
E0
E0
E0
E0
60
60
00
40
E0
E0
E0
ENDCHAR
STARTCHAR 0022
ENCODING 34
SWIDTH 405 0
DWIDTH 9 0
BBX 7 6 1 9
BITMAP
EE
EE
EE
EE
C4
44
ENDCHAR
STARTCHAR 0023
ENCODING 35
SWIDTH 720 0
DWIDTH 16 0
BBX 15 15 1 0
BITMAP
0630
0630
0E30
0E30
7FFE
7FFE
0C60
1C60
1CE0
FFF8
FFF8
18C0
38C0
31C0
31C0
ENDCHAR
STARTCHAR 0024
ENCODING 36
SWIDTH 585 0
DWIDTH 13 0
BBX 11 20 1 -3
BITMAP
0600
0600
0E00
3F80
7FC0
71E0
70C0
7000
7C00
7F80
1FC0
03E0
20E0
E0E0
F0E0
7FC0
3F80
0E00
0600
0600
ENDCHAR
STARTCHAR 0025
ENCODING 37
SWIDTH 855 0
DWIDTH 19 0
BBX 17 15 1 0
BITMAP
3C0E00
7E1C00
E61800
C63800
E67000
7E6000
3CC000
01C000
019E00
033F00
073380
063180
0C3380
1C3F00
381E00
ENDCHAR
STARTCHAR 0026
ENCODING 38
SWIDTH 720 0
DWIDTH 16 0
BBX 14 16 1 0
BITMAP
0F00
3F80
3BC0
71C0
71C0
3BC0
3F84
1F0C
3F1C
7F9C
73F8
E1F0
71F0
7FF8
3FB8
1E1C
ENDCHAR
STARTCHAR 0027
ENCODING 39
SWIDTH 225 0
DWIDTH 5 0
BBX 3 6 1 9
BITMAP
E0
E0
E0
E0
C0
40
ENDCHAR
STARTCHAR 0028
ENCODING 40
SWIDTH 315 0
DWIDTH 7 0
BBX 6 22 1 -4
BITMAP
08
1C
3C
38
70
70
60
E0
E0
E0
C0
C0
E0
E0
E0
60
70
70
38
38
1C
08
ENDCHAR
STARTCHAR 0029
ENCODING 41
SWIDTH 315 0
DWIDTH 7 0
BBX 6 22 0 -4
BITMAP
40
E0
70
30
38
18
1C
1C
0C
0C
0C
0C
0C
0C
1C
1C
18
38
30
70
E0
40
ENDCHAR
STARTCHAR 002A
ENCODING 42
SWIDTH 450 0
DWIDTH 10 0
BBX 8 9 1 7
BITMAP
18
18
99
FF
FF
3C
7E
67
24
ENDCHAR
STARTCHAR 002B
ENCODING 43
SWIDTH 585 0
DWIDTH 13 0
BBX 11 11 1 1
BITMAP
0E00
0E00
0E00
0E00
FFE0
FFE0
0E00
0E00
0E00
0E00
0E00
ENDCHAR
STARTCHAR 002C
ENCODING 44
SWIDTH 315 0
DWIDTH 7 0
BBX 5 8 1 -4
BITMAP
70
F0
F8
78
10
30
60
40
ENDCHAR
STARTCHAR 002D
ENCODING 45
SWIDTH 360 0
DWIDTH 8 0
BBX 6 3 1 5
BITMAP
FC
FC
FC
ENDCHAR
STARTCHAR 002E
ENCODING 46
SWIDTH 315 0
DWIDTH 7 0
BBX 4 4 1 0
BITMAP
70
F0
F0
70
ENDCHAR
STARTCHAR 002F
ENCODING 47
SWIDTH 495 0
DWIDTH 11 0
BBX 10 16 0 0
BITMAP
00C0
01C0
0180
0380
0300
0700
0600
0E00
0C00
1C00
1800
3800
3000
7000
6000
E000
ENDCHAR
STARTCHAR 0030
ENCODING 48
SWIDTH 630 0
DWIDTH 14 0
BBX 12 15 1 0
BITMAP
1F00
3FC0
7FE0
70E0
E0F0
E070
E070
E070
E070
E070
E0F0
70E0
7FE0
3FC0
1F00
ENDCHAR
STARTCHAR 0031
ENCODING 49
SWIDTH 405 0
DWIDTH 9 0
BBX 6 15 1 0
BITMAP
1C
1C
3C
FC
FC
1C
1C
1C
1C
1C
1C
1C
1C
1C
1C
ENDCHAR
STARTCHAR 0032
ENCODING 50
SWIDTH 540 0
DWIDTH 12 0
BBX 10 15 1 0
BITMAP
1F00
7F80
FFC0
E1C0
E1C0
E1C0
03C0
0780
0F80
3E00
7C00
F000
FFC0
FFC0
FFC0
ENDCHAR
STARTCHAR 0033
ENCODING 51
SWIDTH 540 0
DWIDTH 12 0
BBX 11 15 0 0
BITMAP
7FE0
7FE0
7FE0
03C0
0780
0F00
0FC0
0FE0
00E0
00E0
E0E0
70E0
7FE0
3FC0
1F80
ENDCHAR
STARTCHAR 0034
ENCODING 52
SWIDTH 585 0
DWIDTH 13 0
BBX 12 15 1 0
BITMAP
07C0
07C0
0FC0
1DC0
1DC0
39C0
71C0
E1C0
E1C0
FFF0
FFF0
FFF0
01C0
01C0
01C0
ENDCHAR
STARTCHAR 0035
ENCODING 53
SWIDTH 540 0
DWIDTH 12 0
BBX 11 15 1 0
BITMAP
3FC0
7FC0
7FC0
7000
6000
EF00
FFC0
FBC0
01E0
00E0
E0E0
E1C0
FFC0
7F80
1F00
ENDCHAR
STARTCHAR 0036
ENCODING 54
SWIDTH 585 0
DWIDTH 13 0
BBX 11 15 1 0
BITMAP
07E0
1FE0
3FC0
7800
7000
EF80
FFC0
FFE0
F0E0
E0E0
E0E0
F0E0
7FE0
3FC0
1F00
ENDCHAR
STARTCHAR 0037
ENCODING 55
SWIDTH 495 0
DWIDTH 11 0
BBX 11 15 0 0
BITMAP
FFE0
FFE0
FFE0
01C0
0380
0780
0700
0E00
0E00
1C00
1C00
1C00
3C00
3800
3800
ENDCHAR
STARTCHAR 0038
ENCODING 56
SWIDTH 585 0
DWIDTH 13 0
BBX 11 15 1 0
BITMAP
1F00
7F80
FFC0
E1C0
E1C0
71C0
7F80
3F80
73C0
E0E0
E0E0
E1E0
FFC0
7FC0
1F00
ENDCHAR
STARTCHAR 0039
ENCODING 57
SWIDTH 585 0
DWIDTH 13 0
BBX 11 15 1 0
BITMAP
1F00
7F80
FFC0
E1C0
E0E0
E0E0
E1E0
FFE0
7FE0
3EE0
01C0
01C0
7F80
FF00
7E00
ENDCHAR
STARTCHAR 003A
ENCODING 58
SWIDTH 315 0
DWIDTH 7 0
BBX 3 11 2 0
BITMAP
E0
E0
E0
E0
00
00
00
E0
E0
E0
E0
ENDCHAR
STARTCHAR 003B
ENCODING 59
SWIDTH 315 0
DWIDTH 7 0
BBX 3 14 2 -3
BITMAP
E0
E0
E0
E0
00
00
00
00
E0
E0
E0
20
60
C0
ENDCHAR
STARTCHAR 003C
ENCODING 60
SWIDTH 495 0
DWIDTH 11 0
BBX 9 11 1 1
BITMAP
0080
0380
0F80
3E00
F800
E000
F800
3E00
0F80
0380
0080
ENDCHAR
STARTCHAR 003D
ENCODING 61
SWIDTH 585 0
DWIDTH 13 0
BBX 11 7 1 3
BITMAP
FFE0
FFE0
0000
0000
0000
FFE0
FFE0
ENDCHAR
STARTCHAR 003E
ENCODING 62
SWIDTH 495 0
DWIDTH 11 0
BBX 9 11 1 1
BITMAP
8000
E000
F800
3E00
0F80
0380
0F80
3E00
F800
E000
8000
ENDCHAR
STARTCHAR 003F
ENCODING 63
SWIDTH 540 0
DWIDTH 12 0
BBX 10 16 1 0
BITMAP
3E00
7F80
FFC0
E1C0
E1C0
E1C0
0380
0F80
0E00
1C00
1C00
0000
0000
1C00
1C00
1C00
ENDCHAR
STARTCHAR 0040
ENCODING 64
SWIDTH 810 0
DWIDTH 18 0
BBX 17 17 1 -1
BITMAP
03F000
0FFC00
3C1E00
700700
63DB00
E7FB00
C63380
CE3380
CC3300
CC3300
CE7700
E7FE00
639C00
700000
3C0800
1FFC00
07F000
ENDCHAR
STARTCHAR 0041
ENCODING 65
SWIDTH 720 0
DWIDTH 16 0
BBX 16 16 0 0
BITMAP
03C0
03C0
07E0
07E0
07F0
0E70
0E70
1C38
1C38
1FF8
3FFC
3FFC
381E
700E
700E
F00F
ENDCHAR
STARTCHAR 0042
ENCODING 66
SWIDTH 630 0
DWIDTH 14 0
BBX 11 16 2 0
BITMAP
FF00
FF80
FFC0
E1C0
E1C0
E1C0
FF80
FF00
FFC0
E1C0
E0E0
E0E0
E1E0
FFC0
FFC0
FF00
ENDCHAR
STARTCHAR 0043
ENCODING 67
SWIDTH 765 0
DWIDTH 17 0
BBX 15 16 1 0
BITMAP
07E0
1FF8
3FFC
7C3C
701E
F00C
E000
E000
E000
E000
F00C
701E
7C3C
3FFC
1FF8
07E0
ENDCHAR
STARTCHAR 0044
ENCODING 68
SWIDTH 720 0
DWIDTH 16 0
BBX 13 16 2 0
BITMAP
FF00
FFC0
FFE0
E0F0
E078
E038
E038
E038
E038
E038
E038
E078
E0F0
FFE0
FFC0
FF00
ENDCHAR
STARTCHAR 0045
ENCODING 69
SWIDTH 585 0
DWIDTH 13 0
BBX 10 16 2 0
BITMAP
FFC0
FFC0
FFC0
E000
E000
E000
FF80
FF80
FF80
E000
E000
E000
E000
FFC0
FFC0
FFC0
ENDCHAR
STARTCHAR 0046
ENCODING 70
SWIDTH 540 0
DWIDTH 12 0
BBX 10 16 2 0
BITMAP
FFC0
FFC0
FFC0
E000
E000
E000
E000
FF80
FF80
FF80
E000
E000
E000
E000
E000
E000
ENDCHAR
STARTCHAR 0047
ENCODING 71
SWIDTH 765 0
DWIDTH 17 0
BBX 15 16 1 0
BITMAP
07E0
1FF8
3FFC
783E
700E
E000
E000
E1FE
E1FE
E1FE
F00E
700E
781E
3FFE
1FFE
07C6
ENDCHAR
STARTCHAR 0048
ENCODING 72
SWIDTH 765 0
DWIDTH 17 0
BBX 13 16 2 0
BITMAP
E038
E038
E038
E038
E038
E038
FFF8
FFF8
FFF8
E038
E038
E038
E038
E038
E038
E038
ENDCHAR
STARTCHAR 0049
ENCODING 73
SWIDTH 315 0
DWIDTH 7 0
BBX 3 16 2 0
BITMAP
E0
E0
E0
E0
E0
E0
E0
E0
E0
E0
E0
E0
E0
E0
E0
E0
ENDCHAR
STARTCHAR 004A
ENCODING 74
SWIDTH 540 0
DWIDTH 12 0
BBX 11 16 0 0
BITMAP
00E0
00E0
00E0
00E0
00E0
00E0
00E0
00E0
00E0
20E0
E0E0
E0E0
71C0
7FC0
3F80
1F00
ENDCHAR
STARTCHAR 004B
ENCODING 75
SWIDTH 720 0
DWIDTH 16 0
BBX 13 16 2 0
BITMAP
E078
E0F0
E1E0
E3C0
E780
EF00
EE00
FE00
FF00
FF80
F380
E3C0
E1E0
E0E0
E0F0
E078
ENDCHAR
STARTCHAR 004C
ENCODING 76
SWIDTH 540 0
DWIDTH 12 0
BBX 10 16 2 0
BITMAP
E000
E000
E000
E000
E000
E000
E000
E000
E000
E000
E000
E000
E000
FFC0
FFC0
FFC0
ENDCHAR
STARTCHAR 004D
ENCODING 77
SWIDTH 945 0
DWIDTH 21 0
BBX 17 16 2 0
BITMAP
F00780
F00780
F80F80
F80F80
FC1F80
FC1F80
FC1F80
EE3B80
EE3B80
E77380
E77380
E7F380
E3E380
E3E380
E1C380
E1C380
ENDCHAR
STARTCHAR 004E
ENCODING 78
SWIDTH 765 0
DWIDTH 17 0
BBX 13 16 2 0
BITMAP
F038
F838
F838
FC38
FC38
FE38
EF38
E738
E7B8
E3B8
E1F8
E1F8
E0F8
E0F8
E078
E038
ENDCHAR
STARTCHAR 004F
ENCODING 79
SWIDTH 810 0
DWIDTH 18 0
BBX 16 16 1 0
BITMAP
07E0
1FF8
3FFC
7C3E
700E
F00F
E007
E007
E007
E007
F00F
700E
7C3E
3FFC
1FF8
07E0
ENDCHAR
STARTCHAR 0050
ENCODING 80
SWIDTH 585 0
DWIDTH 13 0
BBX 11 16 2 0
BITMAP
FF00
FFC0
FFC0
E1E0
E0E0
E0E0
E1E0
FFC0
FFC0
FF00
E000
E000
E000
E000
E000
E000
ENDCHAR
STARTCHAR 0051
ENCODING 81
SWIDTH 810 0
DWIDTH 18 0
BBX 16 17 1 -1
BITMAP
07E0
1FF8
3FFC
7C3E
700E
F00F
E007
E007
E047
E0E7
F0FF
707E
7C3E
3FFC
1FFE
07E7
0002
ENDCHAR
STARTCHAR 0052
ENCODING 82
SWIDTH 630 0
DWIDTH 14 0
BBX 11 16 2 0
BITMAP
FF00
FFC0
FFC0
E1E0
E0E0
E0E0
E1E0
FFC0
FF80
FF00
E700
E780
E380
E3C0
E1C0
E1E0
ENDCHAR
STARTCHAR 0053
ENCODING 83
SWIDTH 585 0
DWIDTH 13 0
BBX 12 16 1 0
BITMAP
1F00
3FC0
7FE0
F0E0
E040
F000
7C00
7F80
3FE0
03E0
20F0
E0F0
F0E0
7FE0
7FC0
1F80
ENDCHAR
STARTCHAR 0054
ENCODING 84
SWIDTH 630 0
DWIDTH 14 0
BBX 13 16 0 0
BITMAP
FFF8
FFF8
FFF8
0700
0700
0700
0700
0700
0700
0700
0700
0700
0700
0700
0700
0700
ENDCHAR
STARTCHAR 0055
ENCODING 85
SWIDTH 675 0
DWIDTH 15 0
BBX 12 16 2 0
BITMAP
E070
E070
E070
E070
E070
E070
E070
E070
E070
E070
E070
E0F0
F0E0
7FE0
7FC0
1F00
ENDCHAR
STARTCHAR 0056
ENCODING 86
SWIDTH 675 0
DWIDTH 15 0
BBX 15 16 0 0
BITMAP
F00E
701C
701C
781C
3838
3838
1C38
1C70
1C70
0E70
0EE0
0FE0
07C0
07C0
07C0
0380
ENDCHAR
STARTCHAR 0057
ENCODING 87
SWIDTH 1035 0
DWIDTH 23 0
BBX 22 16 0 0
BITMAP
F0381C
707C1C
707C1C
707C1C
78FC38
38EE38
38EE38
38EE78
1DC770
1DC770
1DC770
1F83E0
0F83E0
0F83E0
0F01E0
0701C0
ENDCHAR
STARTCHAR 0058
ENCODING 88
SWIDTH 675 0
DWIDTH 15 0
BBX 13 16 1 0
BITMAP
E038
F070
78F0
38E0
3DE0
1FC0
0F80
0F80
0F80
0F80
1FC0
3DE0
38E0
78F0
F078
E078
ENDCHAR
STARTCHAR 0059
ENCODING 89
SWIDTH 675 0
DWIDTH 15 0
BBX 13 16 1 0
BITMAP
E038
F070
70F0
78E0
39E0
3DC0
1F80
0F80
0F00
0700
0700
0700
0700
0700
0700
0700
ENDCHAR
STARTCHAR 005A
ENCODING 90
SWIDTH 630 0
DWIDTH 14 0
BBX 12 16 1 0
BITMAP
FFF0
FFF0
FFF0
00F0
01E0
03C0
0780
0F00
0F00
1E00
3C00
7800
F000
FFF0
FFF0
FFF0
ENDCHAR
STARTCHAR 005B
ENCODING 91
SWIDTH 315 0
DWIDTH 7 0
BBX 5 21 2 -3
BITMAP
F8
F8
C0
C0
C0
C0
C0
C0
C0
C0
C0
C0
C0
C0
C0
C0
C0
C0
C0
F8
F8
ENDCHAR
STARTCHAR 005C
ENCODING 92
SWIDTH 495 0
DWIDTH 11 0
BBX 10 16 0 0
BITMAP
E000
6000
7000
3000
3800
1800
1C00
0C00
0E00
0600
0700
0300
0380
0180
01C0
00C0
ENDCHAR
STARTCHAR 005D
ENCODING 93
SWIDTH 315 0
DWIDTH 7 0
BBX 5 21 0 -3
BITMAP
F8
F8
18
18
18
18
18
18
18
18
18
18
18
18
18
18
18
18
18
F8
F8
ENDCHAR
STARTCHAR 005E
ENCODING 94
SWIDTH 540 0
DWIDTH 12 0
BBX 10 8 1 8
BITMAP
1C00
1E00
3E00
3F00
7300
6380
E1C0
C1C0
ENDCHAR
STARTCHAR 005F
ENCODING 95
SWIDTH 540 0
DWIDTH 12 0
BBX 11 2 0 -2
BITMAP
FFE0
FFE0
ENDCHAR
STARTCHAR 0060
ENCODING 96
SWIDTH 315 0
DWIDTH 7 0
BBX 5 4 1 12
BITMAP
E0
70
70
38
ENDCHAR
STARTCHAR 0061
ENCODING 97
SWIDTH 540 0
DWIDTH 12 0
BBX 10 11 1 0
BITMAP
3E00
7F80
F380
E1C0
03C0
7FC0
F9C0
E1C0
E3C0
FFC0
3DC0
ENDCHAR
STARTCHAR 0062
ENCODING 98
SWIDTH 630 0
DWIDTH 14 0
BBX 11 16 2 0
BITMAP
C000
C000
C000
C000
C000
CF00
FF80
FFC0
E1E0
E0E0
C0E0
E0E0
E1E0
F3C0
FF80
CF00
ENDCHAR
STARTCHAR 0063
ENCODING 99
SWIDTH 540 0
DWIDTH 12 0
BBX 11 11 1 0
BITMAP
1F00
7F80
7FC0
E1E0
E000
E000
E000
E0E0
7FC0
3F80
1F00
ENDCHAR
STARTCHAR 0064
ENCODING 100
SWIDTH 630 0
DWIDTH 14 0
BBX 11 16 1 0
BITMAP
00E0
00E0
00E0
00E0
00E0
1EE0
7FE0
7FE0
E1E0
E0E0
E0E0
E0E0
E0E0
7BE0
7FE0
1EE0
ENDCHAR
STARTCHAR 0065
ENCODING 101
SWIDTH 540 0
DWIDTH 12 0
BBX 11 11 1 0
BITMAP
1F00
7F80
73C0
E1C0
FFC0
FFE0
E000
E0C0
7FC0
7F80
1F00
ENDCHAR
STARTCHAR 0066
ENCODING 102
SWIDTH 360 0
DWIDTH 8 0
BBX 8 17 0 0
BITMAP
06
1F
1F
38
38
38
FF
FF
FF
38
38
38
38
38
38
38
38
ENDCHAR
STARTCHAR 0067
ENCODING 103
SWIDTH 585 0
DWIDTH 13 0
BBX 11 15 1 -4
BITMAP
1EE0
7FE0
FFE0
E1E0
E0E0
E0E0
E0E0
FFE0
7FE0
1EE0
00E0
E1C0
FFC0
7F80
1F00
ENDCHAR
STARTCHAR 0068
ENCODING 104
SWIDTH 585 0
DWIDTH 13 0
BBX 10 16 2 0
BITMAP
E000
E000
E000
E000
E000
FF00
FF80
FF80
E380
E1C0
E1C0
E1C0
E1C0
E1C0
E1C0
E1C0
ENDCHAR
STARTCHAR 0069
ENCODING 105
SWIDTH 270 0
DWIDTH 6 0
BBX 4 16 1 0
BITMAP
60
F0
F0
00
00
70
70
70
70
70
70
70
70
70
70
70
ENDCHAR
STARTCHAR 006A
ENCODING 106
SWIDTH 270 0
DWIDTH 6 0
BBX 6 20 -1 -4
BITMAP
18
3C
3C
00
00
1C
1C
1C
1C
1C
1C
1C
1C
1C
1C
1C
1C
F8
F8
F0
ENDCHAR
STARTCHAR 006B
ENCODING 107
SWIDTH 540 0
DWIDTH 12 0
BBX 10 16 2 0
BITMAP
E000
E000
E000
E000
E000
E3C0
E780
EF00
FE00
FC00
FC00
FE00
EF00
E700
E380
E3C0
ENDCHAR
STARTCHAR 006C
ENCODING 108
SWIDTH 270 0
DWIDTH 6 0
BBX 3 16 2 0
BITMAP
E0
E0
E0
E0
E0
E0
E0
E0
E0
E0
E0
E0
E0
E0
E0
E0
ENDCHAR
STARTCHAR 006D
ENCODING 109
SWIDTH 900 0
DWIDTH 20 0
BBX 16 11 2 0
BITMAP
CF3C
FFFF
F7EF
E3C7
E387
E387
E387
E387
E387
E387
E387
ENDCHAR
STARTCHAR 006E
ENCODING 110
SWIDTH 585 0
DWIDTH 13 0
BBX 10 11 2 0
BITMAP
CF00
DF80
FF80
E380
E1C0
E1C0
E1C0
E1C0
E1C0
E1C0
E1C0
ENDCHAR
STARTCHAR 006F
ENCODING 111
SWIDTH 585 0
DWIDTH 13 0
BBX 11 11 1 0
BITMAP
1F00
7F80
7FC0
E0E0
E0E0
E0E0
E0E0
E0E0
7FC0
7F80
1F00
ENDCHAR
STARTCHAR 0070
ENCODING 112
SWIDTH 630 0
DWIDTH 14 0
BBX 11 15 2 -4
BITMAP
CF00
FF80
FFC0
E1E0
E0E0
C0E0
E0E0
E1E0
FFC0
FF80
EF00
E000
E000
E000
E000
ENDCHAR
STARTCHAR 0071
ENCODING 113
SWIDTH 630 0
DWIDTH 14 0
BBX 11 15 1 -4
BITMAP
1EE0
7FE0
7FE0
E1E0
E0E0
E0E0
E0E0
E1E0
7FE0
7FE0
1EE0
00E0
00E0
00E0
00E0
ENDCHAR
STARTCHAR 0072
ENCODING 114
SWIDTH 405 0
DWIDTH 9 0
BBX 6 11 2 0
BITMAP
CC
DC
FC
E0
E0
E0
E0
E0
E0
E0
E0
ENDCHAR
STARTCHAR 0073
ENCODING 115
SWIDTH 450 0
DWIDTH 10 0
BBX 8 11 1 0
BITMAP
3C
7F
E7
E0
F8
7F
1F
43
E7
FF
3E
ENDCHAR
STARTCHAR 0074
ENCODING 116
SWIDTH 360 0
DWIDTH 8 0
BBX 7 14 0 0
BITMAP
18
18
38
FE
FE
FE
38
38
38
38
38
3E
1E
0E
ENDCHAR
STARTCHAR 0075
ENCODING 117
SWIDTH 585 0
DWIDTH 13 0
BBX 10 11 1 0
BITMAP
E1C0
E1C0
E1C0
E1C0
E1C0
E1C0
E1C0
F1C0
7BC0
7FC0
3EC0
ENDCHAR
STARTCHAR 0076
ENCODING 118
SWIDTH 540 0
DWIDTH 12 0
BBX 12 11 0 0
BITMAP
F070
70E0
70E0
38E0
39C0
39C0
1F80
1F80
0F80
0F00
0F00
ENDCHAR
STARTCHAR 0077
ENCODING 119
SWIDTH 810 0
DWIDTH 18 0
BBX 18 11 0 0
BITMAP
F0E1C0
71E1C0
71F180
71F380
3BB380
3BBB00
3B3F00
1F1F00
1F1F00
1E1E00
0E0E00
ENDCHAR
STARTCHAR 0078
ENCODING 120
SWIDTH 540 0
DWIDTH 12 0
BBX 10 11 1 0
BITMAP
E1C0
F380
7780
3F00
3E00
1E00
3E00
3F00
7780
F3C0
E1C0
ENDCHAR
STARTCHAR 0079
ENCODING 121
SWIDTH 540 0
DWIDTH 12 0
BBX 12 15 0 -4
BITMAP
F070
70F0
78E0
38E0
3DC0
1DC0
1F80
0F80
0F00
0700
0E00
0E00
1C00
1C00
3C00
ENDCHAR
STARTCHAR 007A
ENCODING 122
SWIDTH 495 0
DWIDTH 11 0
BBX 9 11 1 0
BITMAP
FF80
FF80
FF80
0F00
1E00
3C00
7800
7000
FF80
FF80
FF80
ENDCHAR
STARTCHAR 007B
ENCODING 123
SWIDTH 360 0
DWIDTH 8 0
BBX 7 21 1 -3
BITMAP
0E
1E
38
38
38
38
38
38
38
70
E0
F0
38
38
38
38
38
38
38
1E
0E
ENDCHAR
STARTCHAR 007C
ENCODING 124
SWIDTH 270 0
DWIDTH 6 0
BBX 2 22 2 -4
BITMAP
C0
C0
C0
C0
C0
C0
C0
C0
C0
C0
C0
C0
C0
C0
C0
C0
C0
C0
C0
C0
C0
C0
ENDCHAR
STARTCHAR 007D
ENCODING 125
SWIDTH 360 0
DWIDTH 8 0
BBX 7 21 0 -3
BITMAP
E0
F0
38
18
18
18
18
18
18
1E
0E
1E
1C
18
18
18
18
18
38
F0
F0
ENDCHAR
STARTCHAR 007E
ENCODING 126
SWIDTH 585 0
DWIDTH 13 0
BBX 11 3 1 5
BITMAP
7C60
FFE0
C7C0
ENDCHAR
STARTCHAR 00A0
ENCODING 160
SWIDTH 225 0
DWIDTH 5 0
BBX 0 0 0 0
BITMAP
ENDCHAR
STARTCHAR 00A1
ENCODING 161
SWIDTH 315 0
DWIDTH 7 0
BBX 3 16 2 -5
BITMAP
E0
E0
E0
40
00
C0
E0
E0
E0
E0
E0
E0
E0
E0
E0
E0
ENDCHAR
STARTCHAR 00A2
ENCODING 162
SWIDTH 540 0
DWIDTH 12 0
BBX 10 15 1 0
BITMAP
0C00
0C00
1F00
3F80
7FC0
E1C0
E000
E000
E000
E1C0
7BC0
7F80
1F00
0C00
0C00
ENDCHAR
STARTCHAR 00A3
ENCODING 163
SWIDTH 585 0
DWIDTH 13 0
BBX 12 15 1 0
BITMAP
0F00
3FC0
3FC0
70E0
70C0
7000
3800
FF80
FF80
1800
1800
3870
FFE0
FFE0
FFC0
ENDCHAR
STARTCHAR 00A4
ENCODING 164
SWIDTH 585 0
DWIDTH 13 0
BBX 11 11 1 0
BITMAP
4040
FFE0
7FC0
7BC0
60C0
60C0
60C0
7BC0
7FC0
FFE0
4040
ENDCHAR
STARTCHAR 00A5
ENCODING 165
SWIDTH 630 0
DWIDTH 14 0
BBX 12 15 1 0
BITMAP
E070
F0E0
70E0
79C0
39C0
1F80
7FE0
7FE0
0E00
0E00
7FE0
7FE0
0E00
0E00
0E00
ENDCHAR
STARTCHAR 00A6
ENCODING 166
SWIDTH 270 0
DWIDTH 6 0
BBX 2 22 2 -4
BITMAP
C0
C0
C0
C0
C0
C0
C0
C0
C0
00
00
00
00
C0
C0
C0
C0
C0
C0
C0
C0
C0
ENDCHAR
STARTCHAR 00A7
ENCODING 167
SWIDTH 540 0
DWIDTH 12 0
BBX 10 21 1 -5
BITMAP
1F00
3F80
7FC0
71C0
7100
7800
7E00
3F00
7F80
63C0
71C0
79C0
3F80
1F80
0780
01C0
E1C0
71C0
7F80
3F00
0400
ENDCHAR
STARTCHAR 00A8
ENCODING 168
SWIDTH 405 0
DWIDTH 9 0
BBX 7 3 1 12
BITMAP
C6
EE
C6
ENDCHAR
STARTCHAR 00A9
ENCODING 169
SWIDTH 810 0
DWIDTH 18 0
BBX 16 16 1 0
BITMAP
07E0
1FF8
381C
700E
63C6
C7E3
CE33
CC03
CC03
CE33
C7E3
63C6
700E
381C
1FF8
07E0
ENDCHAR
STARTCHAR 00AA
ENCODING 170
SWIDTH 405 0
DWIDTH 9 0
BBX 7 8 1 7
BITMAP
3C
7E
C6
3E
7E
C6
FE
7E
ENDCHAR
STARTCHAR 00AB
ENCODING 171
SWIDTH 540 0
DWIDTH 12 0
BBX 10 9 1 2
BITMAP
39C0
3380
7380
E700
CE00
E700
7380
3380
39C0
ENDCHAR
STARTCHAR 00AC
ENCODING 172
SWIDTH 585 0
DWIDTH 13 0
BBX 11 7 1 3
BITMAP
FFE0
FFE0
00E0
00E0
00E0
00E0
00E0
ENDCHAR
STARTCHAR 00AD
ENCODING 173
SWIDTH 360 0
DWIDTH 8 0
BBX 6 3 1 5
BITMAP
FC
FC
FC
ENDCHAR
STARTCHAR 00AE
ENCODING 174
SWIDTH 810 0
DWIDTH 18 0
BBX 16 16 1 0
BITMAP
07E0
1FF8
381C
67C6
67E7
C673
C673
C7E3
C7C3
C6C3
C663
6666
700E
381C
1FF8
07E0
ENDCHAR
STARTCHAR 00AF
ENCODING 175
SWIDTH 315 0
DWIDTH 7 0
BBX 6 2 1 13
BITMAP
FC
FC
ENDCHAR
STARTCHAR 00B0
ENCODING 176
SWIDTH 360 0
DWIDTH 8 0
BBX 8 7 0 8
BITMAP
3C
7E
67
E3
67
7E
3C
ENDCHAR
STARTCHAR 00B1
ENCODING 177
SWIDTH 585 0
DWIDTH 13 0
BBX 11 11 1 1
BITMAP
0E00
0E00
0E00
FFE0
FFE0
0E00
0E00
0E00
0000
FFE0
FFE0
ENDCHAR
STARTCHAR 00B2
ENCODING 178
SWIDTH 405 0
DWIDTH 9 0
BBX 7 8 1 8
BITMAP
78
FC
CE
0C
38
70
FE
FE
ENDCHAR
STARTCHAR 00B3
ENCODING 179
SWIDTH 405 0
DWIDTH 9 0
BBX 7 9 1 7
BITMAP
FE
FE
1C
38
1E
06
C6
7E
38
ENDCHAR
STARTCHAR 00B4
ENCODING 180
SWIDTH 315 0
DWIDTH 7 0
BBX 5 4 1 12
BITMAP
78
70
E0
C0
ENDCHAR
STARTCHAR 00B5
ENCODING 181
SWIDTH 585 0
DWIDTH 13 0
BBX 10 15 2 -4
BITMAP
E1C0
E1C0
E1C0
E1C0
E1C0
E1C0
E1C0
E3C0
F7C0
FFC0
FDC0
E000
E000
E000
E000
ENDCHAR
STARTCHAR 00B6
ENCODING 182
SWIDTH 675 0
DWIDTH 15 0
BBX 13 20 1 -4
BITMAP
3FF8
7FF8
FE60
FE60
FE60
FE60
FE60
7E60
3E60
0E60
0E60
0E60
0E60
0E60
0E60
0E60
0E60
0E60
0E60
0E60
ENDCHAR
STARTCHAR 00B7
ENCODING 183
SWIDTH 270 0
DWIDTH 6 0
BBX 4 4 1 5
BITMAP
70
F0
F0
70
ENDCHAR
STARTCHAR 00B8
ENCODING 184
SWIDTH 315 0
DWIDTH 7 0
BBX 5 5 1 -5
BITMAP
20
70
78
98
F0
ENDCHAR
STARTCHAR 00B9
ENCODING 185
SWIDTH 315 0
DWIDTH 7 0
BBX 4 8 1 8
BITMAP
30
70
F0
30
30
30
30
30
ENDCHAR
STARTCHAR 00BA
ENCODING 186
SWIDTH 495 0
DWIDTH 11 0
BBX 8 8 1 7
BITMAP
3C
7F
63
E3
E3
63
7F
3E
ENDCHAR
STARTCHAR 00BB
ENCODING 187
SWIDTH 540 0
DWIDTH 12 0
BBX 10 9 1 2
BITMAP
C600
E700
7380
3980
39C0
3980
7380
E700
E600
ENDCHAR
STARTCHAR 00BC
ENCODING 188
SWIDTH 810 0
DWIDTH 18 0
BBX 16 15 1 0
BITMAP
301C
3038
F030
F070
30E0
30C0
3180
338E
331E
063E
0E7E
0C6E
187F
387F
700E
ENDCHAR
STARTCHAR 00BD
ENCODING 189
SWIDTH 810 0
DWIDTH 18 0
BBX 16 15 1 0
BITMAP
301C
3038
F030
F070
30E0
30C0
3180
339E
333F
0633
0E07
1C0E
181C
383F
703F
ENDCHAR
STARTCHAR 00BE
ENCODING 190
SWIDTH 900 0
DWIDTH 20 0
BBX 18 15 1 0
BITMAP
FE0600
FE0E00
1C1C00
381800
1E3800
067000
C66300
7CE700
39CF00
019B00
03BB00
073FC0
063FC0
0E0300
1C0300
ENDCHAR
STARTCHAR 00BF
ENCODING 191
SWIDTH 495 0
DWIDTH 11 0
BBX 11 16 0 -5
BITMAP
0E00
0E00
0E00
0000
0000
0600
0E00
1E00
3C00
7800
F0E0
E0E0
F1E0
7FC0
7F80
1F00
ENDCHAR
STARTCHAR 00C0
ENCODING 192
SWIDTH 720 0
DWIDTH 16 0
BBX 16 20 0 0
BITMAP
0F00
0780
0180
0000
03C0
03C0
07E0
07E0
07F0
0E70
0E70
1C38
1C38
1FF8
3FFC
3FFC
381E
700E
700E
F00F
ENDCHAR
STARTCHAR 00C1
ENCODING 193
SWIDTH 720 0
DWIDTH 16 0
BBX 16 20 0 0
BITMAP
00F0
00E0
01C0
0000
03C0
03C0
07E0
07E0
07F0
0E70
0E70
1C38
1C38
1FF8
3FFC
3FFC
381E
700E
700E
F00F
ENDCHAR
STARTCHAR 00C2
ENCODING 194
SWIDTH 720 0
DWIDTH 16 0
BBX 16 20 0 0
BITMAP
03C0
07E0
0E70
0000
03C0
03C0
07E0
07E0
07F0
0E70
0E70
1C38
1C38
1FF8
3FFC
3FFC
381E
700E
700E
F00F
ENDCHAR
STARTCHAR 00C3
ENCODING 195
SWIDTH 720 0
DWIDTH 16 0
BBX 16 20 0 0
BITMAP
0730
0FF0
0CE0
0000
03C0
03C0
07E0
07E0
07F0
0E70
0E70
1C38
1C38
1FF8
3FFC
3FFC
381E
700E
700E
F00F
ENDCHAR
STARTCHAR 00C4
ENCODING 196
SWIDTH 720 0
DWIDTH 16 0
BBX 16 20 0 0
BITMAP
1C38
1C38
1C38
0000
03C0
03C0
07E0
07E0
07F0
0E70
0E70
1C38
1C38
1FF8
3FFC
3FFC
381E
700E
700E
F00F
ENDCHAR
STARTCHAR 00C5
ENCODING 197
SWIDTH 720 0
DWIDTH 16 0
BBX 16 20 0 0
BITMAP
03C0
07E0
0660
0660
07C0
03C0
07E0
07E0
07E0
0E70
0E70
1C38
1C38
1FF8
3FFC
3FFC
381C
700E
700E
F00F
ENDCHAR
STARTCHAR 00C6
ENCODING 198
SWIDTH 1080 0
DWIDTH 24 0
BBX 22 16 0 0
BITMAP
003FFC
003FFC
007FFC
00FE00
00EE00
01EE00
03CFFC
038FFC
078FFC
0F0E00
0FFE00
1FFE00
3FFE00
3C0FFC
780FFC
F00FFC
ENDCHAR
STARTCHAR 00C7
ENCODING 199
SWIDTH 765 0
DWIDTH 17 0
BBX 15 21 1 -5
BITMAP
07E0
1FF8
3FFC
7C3C
701E
F00C
E000
E000
E000
E000
E00C
F00E
781E
3FFC
1FF8
0FF0
0180
01C0
00E0
07E0
03C0
ENDCHAR
STARTCHAR 00C8
ENCODING 200
SWIDTH 585 0
DWIDTH 13 0
BBX 10 20 2 0
BITMAP
7800
1C00
0C00
0000
FFC0
FFC0
FFC0
E000
E000
E000
FF80
FF80
FF80
E000
E000
E000
E000
FFC0
FFC0
FFC0
ENDCHAR
STARTCHAR 00C9
ENCODING 201
SWIDTH 585 0
DWIDTH 13 0
BBX 10 20 2 0
BITMAP
0700
0E00
1C00
0000
FFC0
FFC0
FFC0
E000
E000
E000
FF80
FF80
FF80
E000
E000
E000
E000
FFC0
FFC0
FFC0
ENDCHAR
STARTCHAR 00CA
ENCODING 202
SWIDTH 585 0
DWIDTH 13 0
BBX 10 20 2 0
BITMAP
1E00
3F00
7380
0000
FFC0
FFC0
FFC0
E000
E000
E000
FF80
FF80
FF80
E000
E000
E000
E000
FFC0
FFC0
FFC0
ENDCHAR
STARTCHAR 00CB
ENCODING 203
SWIDTH 585 0
DWIDTH 13 0
BBX 10 20 2 0
BITMAP
7380
7380
6300
0000
FFC0
FFC0
FFC0
E000
E000
E000
FF80
FF80
FF80
E000
E000
E000
E000
FFC0
FFC0
FFC0
ENDCHAR
STARTCHAR 00CC
ENCODING 204
SWIDTH 315 0
DWIDTH 7 0
BBX 6 20 -1 0
BITMAP
F0
38
1C
00
1C
1C
1C
1C
1C
1C
1C
1C
1C
1C
1C
1C
1C
1C
1C
1C
ENDCHAR
STARTCHAR 00CD
ENCODING 205
SWIDTH 315 0
DWIDTH 7 0
BBX 5 20 2 0
BITMAP
38
70
E0
00
E0
E0
E0
E0
E0
E0
E0
E0
E0
E0
E0
E0
E0
E0
E0
E0
ENDCHAR
STARTCHAR 00CE
ENCODING 206
SWIDTH 315 0
DWIDTH 7 0
BBX 7 20 0 0
BITMAP
78
FC
C6
00
38
38
38
38
38
38
38
38
38
38
38
38
38
38
38
38
ENDCHAR
STARTCHAR 00CF
ENCODING 207
SWIDTH 315 0
DWIDTH 7 0
BBX 7 20 0 0
BITMAP
EE
EE
CE
00
38
38
38
38
38
38
38
38
38
38
38
38
38
38
38
38
ENDCHAR
STARTCHAR 00D0
ENCODING 208
SWIDTH 765 0
DWIDTH 17 0
BBX 16 16 0 0
BITMAP
3FE0
3FF8
3FFC
383E
381E
380E
380F
FF07
FF07
380F
380E
380E
383E
3FFC
3FF8
3FE0
ENDCHAR
STARTCHAR 00D1
ENCODING 209
SWIDTH 765 0
DWIDTH 17 0
BBX 13 20 2 0
BITMAP
0E40
1FC0
1BC0
0000
F038
F838
F838
FC38
FC38
FE38
EF38
E738
E7B8
E3B8
E1F8
E1F8
E0F8
E0F8
E078
E038
ENDCHAR
STARTCHAR 00D2
ENCODING 210
SWIDTH 810 0
DWIDTH 18 0
BBX 16 20 1 0
BITMAP
0E00
0700
0380
0000
07E0
1FF8
3FFC
7C3E
700E
F00F
E007
E007
E007
E007
F00F
700E
7C3E
3FFC
1FF8
07E0
ENDCHAR
STARTCHAR 00D3
ENCODING 211
SWIDTH 810 0
DWIDTH 18 0
BBX 16 20 1 0
BITMAP
00F0
00E0
01C0
0000
07E0
1FF8
3FFC
7C3E
700E
F00F
E007
E007
E007
E007
F00F
700E
7C3E
3FFC
1FF8
07E0
ENDCHAR
STARTCHAR 00D4
ENCODING 212
SWIDTH 810 0
DWIDTH 18 0
BBX 16 20 1 0
BITMAP
03C0
07E0
0E70
0000
07E0
1FF8
3FFC
7C3E
700E
F00F
E007
E007
E007
E007
F00F
700E
7C3E
3FFC
1FF8
07E0
ENDCHAR
STARTCHAR 00D5
ENCODING 213
SWIDTH 810 0
DWIDTH 18 0
BBX 16 20 1 0
BITMAP
0730
0FF0
0CE0
0000
07E0
1FF8
3FFC
7C3E
700E
F00F
E007
E007
E007
E007
F00F
700E
7C3E
3FFC
1FF8
07E0
ENDCHAR
STARTCHAR 00D6
ENCODING 214
SWIDTH 810 0
DWIDTH 18 0
BBX 16 20 1 0
BITMAP
1838
1C38
1C38
0000
07E0
1FF8
3FFC
7C3E
700E
F00F
E007
E007
E007
E007
F00F
700E
7C3E
3FFC
1FF8
07E0
ENDCHAR
STARTCHAR 00D7
ENCODING 215
SWIDTH 585 0
DWIDTH 13 0
BBX 10 11 1 1
BITMAP
4080
E1C0
73C0
3F80
1F00
1E00
1F00
3F80
73C0
E1C0
4080
ENDCHAR
STARTCHAR 00D8
ENCODING 216
SWIDTH 810 0
DWIDTH 18 0
BBX 16 18 1 -1
BITMAP
0004
07EE
1FFE
3FFC
7C3E
707E
F0FF
E0E7
E1C7
E387
E707
FE0F
7E0E
7C3E
3FFC
7FF8
F7E0
2000
ENDCHAR
STARTCHAR 00D9
ENCODING 217
SWIDTH 675 0
DWIDTH 15 0
BBX 12 20 2 0
BITMAP
3C00
1C00
0E00
0000
E070
E070
E070
E070
E070
E070
E070
E070
E070
E070
E070
E0F0
F0E0
7FE0
7FC0
1F00
ENDCHAR
STARTCHAR 00DA
ENCODING 218
SWIDTH 675 0
DWIDTH 15 0
BBX 12 20 2 0
BITMAP
0380
0700
0E00
0000
E070
E070
E070
E070
E070
E070
E070
E070
E070
E070
E070
E0F0
F0E0
7FE0
7FC0
1F00
ENDCHAR
STARTCHAR 00DB
ENCODING 219
SWIDTH 675 0
DWIDTH 15 0
BBX 12 20 2 0
BITMAP
0F00
1F80
39C0
0000
E070
E070
E070
E070
E070
E070
E070
E070
E070
E070
E070
E0F0
F0E0
7FE0
7FC0
1F00
ENDCHAR
STARTCHAR 00DC
ENCODING 220
SWIDTH 675 0
DWIDTH 15 0
BBX 12 20 2 0
BITMAP
31C0
79C0
31C0
0000
E070
E070
E070
E070
E070
E070
E070
E070
E070
E070
E070
E0F0
F0E0
7FE0
7FC0
1F00
ENDCHAR
STARTCHAR 00DD
ENCODING 221
SWIDTH 675 0
DWIDTH 15 0
BBX 13 20 1 0
BITMAP
03C0
0380
0700
0000
E038
F070
70F0
78E0
39E0
3DC0
1F80
0F80
0F00
0700
0700
0700
0700
0700
0700
0700
ENDCHAR
STARTCHAR 00DE
ENCODING 222
SWIDTH 585 0
DWIDTH 13 0
BBX 11 16 2 0
BITMAP
E000
E000
E000
FF00
FF80
FFC0
E1E0
E0E0
E0E0
E1E0
FFC0
FF80
FF00
E000
E000
E000
ENDCHAR
STARTCHAR 00DF
ENCODING 223
SWIDTH 585 0
DWIDTH 13 0
BBX 11 16 2 0
BITMAP
3E00
7F80
FFC0
E1C0
E1C0
C3C0
C780
CF00
CE00
CF80
C7C0
C3E0
C4E0
DCE0
CFC0
C780
ENDCHAR
STARTCHAR 00E0
ENCODING 224
SWIDTH 540 0
DWIDTH 12 0
BBX 10 15 1 0
BITMAP
3800
1800
0C00
0000
3E00
7F80
F380
E1C0
03C0
7FC0
F9C0
E1C0
E3C0
FFC0
3DC0
ENDCHAR
STARTCHAR 00E1
ENCODING 225
SWIDTH 540 0
DWIDTH 12 0
BBX 10 15 1 0
BITMAP
0700
0E00
0C00
0000
3E00
7F80
F380
E1C0
03C0
7FC0
F9C0
E1C0
E3C0
FFC0
3DC0
ENDCHAR
STARTCHAR 00E2
ENCODING 226
SWIDTH 540 0
DWIDTH 12 0
BBX 10 15 1 0
BITMAP
1E00
3F00
7300
0000
3E00
7F80
F380
E1C0
03C0
7FC0
F9C0
E1C0
E3C0
FFC0
3DC0
ENDCHAR
STARTCHAR 00E3
ENCODING 227
SWIDTH 540 0
DWIDTH 12 0
BBX 10 16 1 0
BITMAP
3980
7F80
6700
0000
0000
3E00
7F80
F380
E1C0
03C0
7FC0
F9C0
E1C0
E3C0
FFC0
3DC0
ENDCHAR
STARTCHAR 00E4
ENCODING 228
SWIDTH 540 0
DWIDTH 12 0
BBX 10 15 1 0
BITMAP
7300
7380
7300
0000
3E00
7F80
F380
E1C0
03C0
7FC0
F9C0
E1C0
E3C0
FFC0
3DC0
ENDCHAR
STARTCHAR 00E5
ENCODING 229
SWIDTH 540 0
DWIDTH 12 0
BBX 10 17 1 0
BITMAP
1C00
3E00
3200
3E00
1C00
0000
3E00
7F80
F380
E1C0
03C0
7FC0
F9C0
E1C0
E3C0
FFC0
3DC0
ENDCHAR
STARTCHAR 00E6
ENCODING 230
SWIDTH 855 0
DWIDTH 19 0
BBX 18 11 1 0
BITMAP
1E3E00
7FFF00
F3E780
61C380
1FFF80
7FFFC0
E1C000
E1C180
E3FF80
FF7F00
3C3E00
ENDCHAR
STARTCHAR 00E7
ENCODING 231
SWIDTH 540 0
DWIDTH 12 0
BBX 10 16 1 -5
BITMAP
1F00
3F80
7FC0
F1C0
E000
E000
E000
E0C0
F1C0
7FC0
3F80
0400
0E00
0300
1F00
1E00
ENDCHAR
STARTCHAR 00E8
ENCODING 232
SWIDTH 540 0
DWIDTH 12 0
BBX 11 15 1 0
BITMAP
3800
1C00
0C00
0000
1F00
7F80
73C0
E1C0
FFC0
FFE0
E000
E0C0
7FC0
7F80
1F00
ENDCHAR
STARTCHAR 00E9
ENCODING 233
SWIDTH 540 0
DWIDTH 12 0
BBX 11 15 1 0
BITMAP
0780
0700
0E00
0000
1F00
7F80
73C0
E1C0
FFC0
FFE0
E000
E0C0
7FC0
7F80
1F00
ENDCHAR
STARTCHAR 00EA
ENCODING 234
SWIDTH 540 0
DWIDTH 12 0
BBX 11 15 1 0
BITMAP
1E00
1F00
3380
0000
1F00
7F80
73C0
E1C0
FFC0
FFE0
E000
E0C0
7FC0
7F80
1F00
ENDCHAR
STARTCHAR 00EB
ENCODING 235
SWIDTH 540 0
DWIDTH 12 0
BBX 11 15 1 0
BITMAP
3380
7380
3380
0000
1F00
7F80
73C0
E1C0
FFC0
FFE0
E000
E0C0
7FC0
7F80
1F00
ENDCHAR
STARTCHAR 00EC
ENCODING 236
SWIDTH 270 0
DWIDTH 6 0
BBX 6 16 -1 0
BITMAP
F0
70
38
18
00
1C
1C
1C
1C
1C
1C
1C
1C
1C
1C
1C
ENDCHAR
STARTCHAR 00ED
ENCODING 237
SWIDTH 270 0
DWIDTH 6 0
BBX 5 16 2 0
BITMAP
78
70
E0
C0
00
E0
E0
E0
E0
E0
E0
E0
E0
E0
E0
E0
ENDCHAR
STARTCHAR 00EE
ENCODING 238
SWIDTH 270 0
DWIDTH 6 0
BBX 8 16 -1 0
BITMAP
3C
3C
7E
E7
00
1C
1C
1C
1C
1C
1C
1C
1C
1C
1C
1C
ENDCHAR
STARTCHAR 00EF
ENCODING 239
SWIDTH 270 0
DWIDTH 6 0
BBX 7 16 0 0
BITMAP
CC
EE
CC
00
00
38
38
38
38
38
38
38
38
38
38
38
ENDCHAR
STARTCHAR 00F0
ENCODING 240
SWIDTH 585 0
DWIDTH 13 0
BBX 11 17 1 0
BITMAP
3000
3C40
3FC0
0F80
3F80
19C0
01C0
3FE0
7FE0
F1E0
E0E0
E0E0
E0E0
E0E0
7FC0
7F80
1F00
ENDCHAR
STARTCHAR 00F1
ENCODING 241
SWIDTH 585 0
DWIDTH 13 0
BBX 10 16 2 0
BITMAP
3980
7F00
6F00
0000
0000
CF00
DF80
FF80
E380
E1C0
E1C0
E1C0
E1C0
E1C0
E1C0
E1C0
ENDCHAR
STARTCHAR 00F2
ENCODING 242
SWIDTH 585 0
DWIDTH 13 0
BBX 11 15 1 0
BITMAP
3800
1C00
0C00
0000
1F00
7F80
7FC0
E0E0
E0E0
E0E0
E0E0
E0E0
7FC0
7F80
1F00
ENDCHAR
STARTCHAR 00F3
ENCODING 243
SWIDTH 585 0
DWIDTH 13 0
BBX 11 15 1 0
BITMAP
0380
0700
0E00
0000
1F00
7F80
7FC0
E0E0
E0E0
E0E0
E0E0
E0E0
7FC0
7F80
1F00
ENDCHAR
STARTCHAR 00F4
ENCODING 244
SWIDTH 585 0
DWIDTH 13 0
BBX 11 15 1 0
BITMAP
0E00
1B00
3180
0000
1F00
7F80
7FC0
E0E0
E0E0
E0E0
E0E0
E0E0
7FC0
7F80
1F00
ENDCHAR
STARTCHAR 00F5
ENCODING 245
SWIDTH 585 0
DWIDTH 13 0
BBX 11 16 1 0
BITMAP
1C80
3F80
3780
0000
0000
1F00
7F80
7FC0
E0E0
E0E0
E0E0
E0E0
E0E0
7FC0
7F80
1F00
ENDCHAR
STARTCHAR 00F6
ENCODING 246
SWIDTH 585 0
DWIDTH 13 0
BBX 11 15 1 0
BITMAP
3180
3B80
3180
0000
1F00
7F80
7FC0
E0E0
E0E0
E0E0
E0E0
E0E0
7FC0
7F80
1F00
ENDCHAR
STARTCHAR 00F7
ENCODING 247
SWIDTH 585 0
DWIDTH 13 0
BBX 11 11 1 1
BITMAP
0E00
0E00
0E00
0000
FFE0
FFE0
0000
0000
0E00
0E00
0E00
ENDCHAR
STARTCHAR 00F8
ENCODING 248
SWIDTH 585 0
DWIDTH 13 0
BBX 11 13 1 -1
BITMAP
0040
1F60
7FC0
7FC0
E3E0
E7E0
EEE0
FCE0
F8E0
7FC0
7F80
FF00
4000
ENDCHAR
STARTCHAR 00F9
ENCODING 249
SWIDTH 585 0
DWIDTH 13 0
BBX 10 16 1 0
BITMAP
3800
1C00
0C00
0E00
0000
E1C0
E1C0
E1C0
E1C0
E1C0
E1C0
E1C0
F1C0
7BC0
7FC0
3EC0
ENDCHAR
STARTCHAR 00FA
ENCODING 250
SWIDTH 585 0
DWIDTH 13 0
BBX 10 16 1 0
BITMAP
0780
0700
0E00
0C00
0000
E1C0
E1C0
E1C0
E1C0
E1C0
E1C0
E1C0
F1C0
7BC0
7FC0
3EC0
ENDCHAR
STARTCHAR 00FB
ENCODING 251
SWIDTH 585 0
DWIDTH 13 0
BBX 10 16 1 0
BITMAP
0E00
1F00
3B00
3180
0000
E1C0
E1C0
E1C0
E1C0
E1C0
E1C0
E1C0
F1C0
7BC0
7FC0
3EC0
ENDCHAR
STARTCHAR 00FC
ENCODING 252
SWIDTH 585 0
DWIDTH 13 0
BBX 10 16 1 0
BITMAP
3180
3B80
3180
0000
0000
E1C0
E1C0
E1C0
E1C0
E1C0
E1C0
E1C0
F1C0
7BC0
7FC0
3EC0
ENDCHAR
STARTCHAR 00FD
ENCODING 253
SWIDTH 540 0
DWIDTH 12 0
BBX 12 20 0 -4
BITMAP
03C0
0380
0700
0600
0000
F070
70F0
78E0
38E0
3DC0
1DC0
1F80
0F80
0F00
0700
0E00
0E00
1C00
1C00
3C00
ENDCHAR
STARTCHAR 00FE
ENCODING 254
SWIDTH 630 0
DWIDTH 14 0
BBX 11 20 2 -4
BITMAP
E000
E000
E000
E000
E000
EF00
FF80
FFC0
E1E0
E0E0
C0E0
E0E0
E1E0
FFC0
FF80
EF00
E000
E000
E000
E000
ENDCHAR
STARTCHAR 00FF
ENCODING 255
SWIDTH 540 0
DWIDTH 12 0
BBX 12 20 0 -4
BITMAP
19C0
39C0
19C0
0000
0000
F070
70F0
78E0
38E0
3DC0
1DC0
1F80
0F80
0F00
0700
0E00
0E00
1C00
1C00
3C00
ENDCHAR
STARTCHAR 0131
ENCODING 305
SWIDTH 270 0
DWIDTH 6 0
BBX 3 11 2 0
BITMAP
E0
E0
E0
E0
E0
E0
E0
E0
E0
E0
E0
ENDCHAR
STARTCHAR 0141
ENCODING 321
SWIDTH 585 0
DWIDTH 13 0
BBX 12 16 0 0
BITMAP
3800
3800
3800
3800
3800
3980
3F80
3F00
7C00
F800
F800
3800
3800
3FF0
3FF0
3FF0
ENDCHAR
STARTCHAR 0142
ENCODING 322
SWIDTH 315 0
DWIDTH 7 0
BBX 7 16 0 0
BITMAP
38
38
38
38
38
38
3E
3E
7C
F8
F8
38
38
38
38
38
ENDCHAR
STARTCHAR 0152
ENCODING 338
SWIDTH 1125 0
DWIDTH 25 0
BBX 23 16 1 0
BITMAP
07E7FE
1FFFFE
3FFFFE
781F00
700F00
E00F00
E007FC
E007FC
E007FC
E00700
F00F00
700F00
781F00
3FFFFE
1FF7FE
07E7FE
ENDCHAR
STARTCHAR 0153
ENCODING 339
SWIDTH 945 0
DWIDTH 21 0
BBX 19 11 1 0
BITMAP
1F1F00
7FBFC0
7FF9C0
E0E0E0
E0FFE0
E0FFE0
E0E000
F1F0E0
7FFFE0
3FBFC0
1F1F00
ENDCHAR
STARTCHAR 0160
ENCODING 352
SWIDTH 585 0
DWIDTH 13 0
BBX 12 20 1 0
BITMAP
39C0
1F80
0F00
0000
1F00
3FC0
7FE0
F0E0
E040
F000
7C00
7F80
3FE0
03E0
20F0
E0F0
F0E0
7FE0
7FC0
1F80
ENDCHAR
STARTCHAR 0161
ENCODING 353
SWIDTH 450 0
DWIDTH 10 0
BBX 8 15 1 0
BITMAP
67
7E
3C
00
3C
7F
E7
E0
F8
7F
1F
43
E7
FF
3E
ENDCHAR
STARTCHAR 0178
ENCODING 376
SWIDTH 675 0
DWIDTH 15 0
BBX 13 20 1 0
BITMAP
38C0
39E0
38C0
0000
E038
F070
70F0
78E0
39E0
3DC0
1F80
0F80
0F00
0700
0700
0700
0700
0700
0700
0700
ENDCHAR
STARTCHAR 017D
ENCODING 381
SWIDTH 630 0
DWIDTH 14 0
BBX 12 20 1 0
BITMAP
19C0
1F80
0F00
0000
FFF0
FFF0
FFF0
00F0
01E0
03C0
0780
0F00
0F00
1E00
3C00
7800
F000
FFF0
FFF0
FFF0
ENDCHAR
STARTCHAR 017E
ENCODING 382
SWIDTH 495 0
DWIDTH 11 0
BBX 9 16 1 0
BITMAP
6300
7600
3E00
1C00
0000
FF80
FF80
FF80
0F00
1E00
3C00
7800
7000
FF80
FF80
FF80
ENDCHAR
STARTCHAR 0192
ENCODING 402
SWIDTH 495 0
DWIDTH 11 0
BBX 12 21 -1 -4
BITMAP
0070
01F0
01F0
03C0
0380
0380
1FE0
1FE0
07E0
0700
0700
0700
0E00
0E00
0E00
0E00
0E00
1C00
FC00
F800
7000
ENDCHAR
STARTCHAR 02C6
ENCODING 710
SWIDTH 405 0
DWIDTH 9 0
BBX 7 4 1 12
BITMAP
38
7C
EC
C6
ENDCHAR
STARTCHAR 02C7
ENCODING 711
SWIDTH 405 0
DWIDTH 9 0
BBX 7 4 1 12
BITMAP
C6
EC
7C
38
ENDCHAR
STARTCHAR 02C9
ENCODING 713
SWIDTH 315 0
DWIDTH 7 0
BBX 6 2 1 13
BITMAP
FC
FC
ENDCHAR
STARTCHAR 02D8
ENCODING 728
SWIDTH 360 0
DWIDTH 8 0
BBX 7 4 1 12
BITMAP
C6
CE
FC
78
ENDCHAR
STARTCHAR 02D9
ENCODING 729
SWIDTH 180 0
DWIDTH 4 0
BBX 4 4 0 12
BITMAP
60
F0
F0
60
ENDCHAR
STARTCHAR 02DA
ENCODING 730
SWIDTH 270 0
DWIDTH 6 0
BBX 5 5 1 12
BITMAP
70
F0
98
F0
70
ENDCHAR
STARTCHAR 02DB
ENCODING 731
SWIDTH 225 0
DWIDTH 5 0
BBX 3 5 1 -5
BITMAP
60
C0
C0
E0
E0
ENDCHAR
STARTCHAR 02DC
ENCODING 732
SWIDTH 405 0
DWIDTH 9 0
BBX 8 3 0 13
BITMAP
73
7F
CF
ENDCHAR
STARTCHAR 02DD
ENCODING 733
SWIDTH 405 0
DWIDTH 9 0
BBX 7 4 1 12
BITMAP
6E
EC
DC
D8
ENDCHAR
STARTCHAR 0394
ENCODING 916
SWIDTH 675 0
DWIDTH 15 0
BBX 15 16 0 0
BITMAP
03C0
07C0
07C0
07E0
0EE0
0EE0
0E70
1C70
1C78
3C38
3838
381C
701C
7FFC
7FFE
FFFE
ENDCHAR
STARTCHAR 03A9
ENCODING 937
SWIDTH 765 0
DWIDTH 17 0
BBX 15 16 1 0
BITMAP
07E0
1FF8
3FFC
783C
F01E
F00E
E00E
E00E
E00E
F00E
701C
3C7C
1EF8
FEFE
FEFE
FEFE
ENDCHAR
STARTCHAR 03BC
ENCODING 956
SWIDTH 585 0
DWIDTH 13 0
BBX 10 15 2 -4
BITMAP
E1C0
E1C0
E1C0
E1C0
E1C0
E1C0
E1C0
E3C0
F7C0
FFC0
FDC0
E000
E000
E000
E000
ENDCHAR
STARTCHAR 03C0
ENCODING 960
SWIDTH 630 0
DWIDTH 14 0
BBX 12 11 1 0
BITMAP
FFF0
FFF0
FFF0
38C0
38C0
38C0
38C0
38C0
38F0
38F0
3870
ENDCHAR
STARTCHAR 2007
ENCODING 8199
SWIDTH 630 0
DWIDTH 14 0
BBX 0 0 0 0
BITMAP
ENDCHAR
STARTCHAR 2008
ENCODING 8200
SWIDTH 315 0
DWIDTH 7 0
BBX 0 0 0 0
BITMAP
ENDCHAR
STARTCHAR 200B
ENCODING 8203
SWIDTH 0 0
DWIDTH 0 0
BBX 0 0 0 0
BITMAP
ENDCHAR
STARTCHAR 2013
ENCODING 8211
SWIDTH 630 0
DWIDTH 14 0
BBX 12 3 1 5
BITMAP
FFF0
FFF0
FFF0
ENDCHAR
STARTCHAR 2014
ENCODING 8212
SWIDTH 1080 0
DWIDTH 24 0
BBX 20 3 2 5
BITMAP
FFFFF0
FFFFF0
FFFFF0
ENDCHAR
STARTCHAR 2018
ENCODING 8216
SWIDTH 225 0
DWIDTH 5 0
BBX 3 6 1 10
BITMAP
20
E0
C0
E0
E0
E0
ENDCHAR
STARTCHAR 2019
ENCODING 8217
SWIDTH 225 0
DWIDTH 5 0
BBX 3 6 1 10
BITMAP
E0
E0
E0
20
60
C0
ENDCHAR
STARTCHAR 201A
ENCODING 8218
SWIDTH 225 0
DWIDTH 5 0
BBX 3 6 1 -3
BITMAP
E0
E0
E0
20
60
C0
ENDCHAR
STARTCHAR 201C
ENCODING 8220
SWIDTH 450 0
DWIDTH 10 0
BBX 8 6 1 10
BITMAP
23
E6
CC
EE
EF
E6
ENDCHAR
STARTCHAR 201D
ENCODING 8221
SWIDTH 450 0
DWIDTH 10 0
BBX 8 6 1 10
BITMAP
E6
EF
EF
23
66
CC
ENDCHAR
STARTCHAR 201E
ENCODING 8222
SWIDTH 450 0
DWIDTH 10 0
BBX 8 6 1 -3
BITMAP
EE
EF
EF
23
66
CC
ENDCHAR
STARTCHAR 2020
ENCODING 8224
SWIDTH 405 0
DWIDTH 9 0
BBX 8 12 1 4
BITMAP
38
38
38
FF
FF
38
38
38
38
38
38
38
ENDCHAR
STARTCHAR 2021
ENCODING 8225
SWIDTH 450 0
DWIDTH 10 0
BBX 8 16 1 0
BITMAP
18
18
18
FF
FF
18
18
18
18
18
18
FF
FF
18
18
18
ENDCHAR
STARTCHAR 2022
ENCODING 8226
SWIDTH 540 0
DWIDTH 12 0
BBX 10 9 1 2
BITMAP
1E00
7F00
7F80
FF80
FFC0
FF80
7F80
7F00
1E00
ENDCHAR
STARTCHAR 2026
ENCODING 8230
SWIDTH 900 0
DWIDTH 20 0
BBX 17 3 2 0
BITMAP
E1C300
E3C780
E1C300
ENDCHAR
STARTCHAR 2030
ENCODING 8240
SWIDTH 1080 0
DWIDTH 24 0
BBX 22 15 1 0
BITMAP
3C0E00
7E1C00
E61800
C63800
E67000
7E6000
3CC000
01C000
019E78
033FFC
07318C
06318C
0C338C
1C3FFC
381E70
ENDCHAR
STARTCHAR 2039
ENCODING 8249
SWIDTH 315 0
DWIDTH 7 0
BBX 5 9 1 2
BITMAP
38
30
70
E0
C0
E0
70
30
38
ENDCHAR
STARTCHAR 203A
ENCODING 8250
SWIDTH 315 0
DWIDTH 7 0
BBX 5 9 1 2
BITMAP
E0
E0
70
38
38
38
70
E0
E0
ENDCHAR
STARTCHAR 2042
ENCODING 8258
SWIDTH 855 0
DWIDTH 19 0
BBX 17 16 1 0
BITMAP
018000
018000
07F000
0FF000
03C000
03E000
026000
000000
000000
180C00
9A0C00
FE7F80
7E3F00
3C1E00
6C3F00
241200
ENDCHAR
STARTCHAR 2044
ENCODING 8260
SWIDTH 585 0
DWIDTH 13 0
BBX 12 15 0 0
BITMAP
0030
0070
00E0
00C0
01C0
0380
0300
0700
0E00
0C00
1C00
3800
3000
7000
E000
ENDCHAR
STARTCHAR 2051
ENCODING 8273
SWIDTH 450 0
DWIDTH 10 0
BBX 8 16 1 0
BITMAP
18
18
FE
FF
3C
7C
64
00
00
18
9A
FE
7E
3C
6E
24
ENDCHAR
STARTCHAR 2070
ENCODING 8304
SWIDTH 450 0
DWIDTH 10 0
BBX 8 9 1 7
BITMAP
3C
7E
E6
C6
C7
E6
E6
7E
3C
ENDCHAR
STARTCHAR 2074
ENCODING 8308
SWIDTH 450 0
DWIDTH 10 0
BBX 8 8 1 8
BITMAP
1C
1C
3C
6C
CC
FF
FF
0C
ENDCHAR
STARTCHAR 2075
ENCODING 8309
SWIDTH 405 0
DWIDTH 9 0
BBX 7 8 1 8
BITMAP
7C
7C
60
7C
0E
46
FC
38
ENDCHAR
STARTCHAR 2076
ENCODING 8310
SWIDTH 405 0
DWIDTH 9 0
BBX 7 9 1 7
BITMAP
1E
7E
60
DC
FE
E6
E6
7E
38
ENDCHAR
STARTCHAR 2077
ENCODING 8311
SWIDTH 405 0
DWIDTH 9 0
BBX 7 8 1 8
BITMAP
FE
FE
0C
18
38
30
30
70
ENDCHAR
STARTCHAR 2078
ENCODING 8312
SWIDTH 405 0
DWIDTH 9 0
BBX 7 9 1 7
BITMAP
3C
7E
E6
7C
7C
C6
E6
7E
38
ENDCHAR
STARTCHAR 2079
ENCODING 8313
SWIDTH 405 0
DWIDTH 9 0
BBX 7 9 1 7
BITMAP
38
7C
C6
C6
7E
36
0E
7C
70
ENDCHAR
STARTCHAR 2080
ENCODING 8320
SWIDTH 450 0
DWIDTH 10 0
BBX 8 9 1 -2
BITMAP
3C
7E
E6
C6
C7
C6
E6
7E
3C
ENDCHAR
STARTCHAR 2081
ENCODING 8321
SWIDTH 315 0
DWIDTH 7 0
BBX 4 8 1 -2
BITMAP
30
70
F0
30
30
30
30
30
ENDCHAR
STARTCHAR 2082
ENCODING 8322
SWIDTH 405 0
DWIDTH 9 0
BBX 7 8 1 -2
BITMAP
78
FC
CE
0C
38
70
FE
FE
ENDCHAR
STARTCHAR 2083
ENCODING 8323
SWIDTH 405 0
DWIDTH 9 0
BBX 7 9 1 -3
BITMAP
FE
FE
1C
38
1E
06
C6
7E
38
ENDCHAR
STARTCHAR 2084
ENCODING 8324
SWIDTH 450 0
DWIDTH 10 0
BBX 8 8 1 -2
BITMAP
1C
1C
3C
6C
CC
FF
FF
0C
ENDCHAR
STARTCHAR 2085
ENCODING 8325
SWIDTH 405 0
DWIDTH 9 0
BBX 7 9 1 -3
BITMAP
7C
7C
60
7C
FE
06
CE
7C
38
ENDCHAR
STARTCHAR 2086
ENCODING 8326
SWIDTH 405 0
DWIDTH 9 0
BBX 7 9 1 -3
BITMAP
1E
7E
60
DC
FE
E6
E6
7E
38
ENDCHAR
STARTCHAR 2087
ENCODING 8327
SWIDTH 405 0
DWIDTH 9 0
BBX 7 8 1 -2
BITMAP
FE
FE
0C
18
38
30
30
70
ENDCHAR
STARTCHAR 2088
ENCODING 8328
SWIDTH 405 0
DWIDTH 9 0
BBX 7 9 1 -3
BITMAP
3C
7E
E6
7C
7C
C6
E6
7E
38
ENDCHAR
STARTCHAR 2089
ENCODING 8329
SWIDTH 405 0
DWIDTH 9 0
BBX 7 9 1 -3
BITMAP
38
7C
C6
C6
7E
36
0E
7C
70
ENDCHAR
STARTCHAR 20AC
ENCODING 8364
SWIDTH 675 0
DWIDTH 15 0
BBX 14 15 1 0
BITMAP
01F0
07F8
0FF8
1E00
1C00
FFE0
FFE0
3800
FFC0
FF80
1C00
1E00
0FF8
07FC
01F0
ENDCHAR
STARTCHAR 2113
ENCODING 8467
SWIDTH 450 0
DWIDTH 10 0
BBX 8 15 1 0
BITMAP
1C
3E
7F
77
77
77
7E
7C
7C
F0
F0
70
7E
3E
1E
ENDCHAR
STARTCHAR 2122
ENCODING 8482
SWIDTH 855 0
DWIDTH 19 0
BBX 17 8 1 8
BITMAP
FCE380
FCE380
30E780
30F780
30FF80
30DD80
30DD80
30D980
ENDCHAR
STARTCHAR 2126
ENCODING 8486
SWIDTH 765 0
DWIDTH 17 0
BBX 15 16 1 0
BITMAP
07E0
1FF8
3FFC
783C
F01E
F00E
E00E
E00E
E00E
F00E
701C
3C7C
1EF8
FEFE
FEFE
FEFE
ENDCHAR
STARTCHAR 2160
ENCODING 8544
SWIDTH 495 0
DWIDTH 11 0
BBX 9 15 1 0
BITMAP
FF80
FF80
FF80
1C00
1C00
1C00
1C00
1C00
1C00
1C00
1C00
1C00
FF80
FF80
FF80
ENDCHAR
STARTCHAR 2161
ENCODING 8545
SWIDTH 765 0
DWIDTH 17 0
BBX 15 15 1 0
BITMAP
FFFE
FFFE
FFFE
1C70
1C70
1C70
1C70
1C70
1C70
1C70
1C70
1C70
FFFE
FFFE
FFFE
ENDCHAR
STARTCHAR 2162
ENCODING 8546
SWIDTH 1080 0
DWIDTH 24 0
BBX 22 15 1 0
BITMAP
FFFFFC
FFFFFC
FFFFFC
1C71E0
1C71E0
1C71E0
1C71E0
1C71E0
1C71E0
1C71E0
1C71E0
1C71E0
FFFFFC
FFFFFC
FFFFFC
ENDCHAR
STARTCHAR 2163
ENCODING 8547
SWIDTH 1035 0
DWIDTH 23 0
BBX 21 15 1 0
BITMAP
FFFFF8
FFFFF8
FFFFF8
1CE0E0
1CE1C0
1C71C0
1C71C0
1C7380
1C3B80
1C3B80
1C3B80
1C3F00
FFFFF8
FFFFF8
FFFFF8
ENDCHAR
STARTCHAR 2164
ENCODING 8548
SWIDTH 810 0
DWIDTH 18 0
BBX 16 15 1 0
BITMAP
FFFF
FFFF
FFFF
1C38
1C38
1C38
0E70
0E70
0E70
0EE0
07E0
07E0
FFFF
FFFF
FFFF
ENDCHAR
STARTCHAR 2165
ENCODING 8549
SWIDTH 1035 0
DWIDTH 23 0
BBX 21 15 1 0
BITMAP
FFFFF8
FFFFF8
FFFFF8
1C39C0
1C39C0
1C39C0
0E71C0
0E71C0
0E71C0
0F71C0
07E1C0
07E1C0
FFFFF8
FFFFF8
FFFFF8
ENDCHAR
STARTCHAR 2166
ENCODING 8550
SWIDTH 1350 0
DWIDTH 30 0
BBX 28 15 1 0
BITMAP
FFFFFFF0
FFFFFFF0
FFFFFFF0
1C39C780
1C39C780
1C39C780
0E71C780
0E71C780
0E71C780
0F61C780
07E1C780
07E1C780
FFFFFFF0
FFFFFFF0
FFFFFFF0
ENDCHAR
STARTCHAR 2167
ENCODING 8551
SWIDTH 1575 0
DWIDTH 35 0
BBX 33 15 1 0
BITMAP
FFFFFFFF80
FFFFFFFF80
FFFFFFFF80
1C39C71C00
1C39C71C00
1C39C71C00
0E71C71C00
0E71C71C00
0E71C71C00
0EE1C71C00
07E1C71C00
07E1C71C00
FFFFFFFF80
FFFFFFFF80
FFFFFFFF80
ENDCHAR
STARTCHAR 2168
ENCODING 8552
SWIDTH 1035 0
DWIDTH 23 0
BBX 21 15 1 0
BITMAP
FFFFF8
FFFFF8
FFFFF8
1CF3C0
1C7B80
1C3F80
1C3F00
1C1E00
1C1F00
1C3F00
1C7B80
1CF3C0
FFFFF8
FFFFF8
FFFFF8
ENDCHAR
STARTCHAR 2169
ENCODING 8553
SWIDTH 765 0
DWIDTH 17 0
BBX 15 15 1 0
BITMAP
FFFE
FFFE
FFFE
1C70
0EF0
0FE0
07C0
03C0
07C0
0FE0
0EF0
1E70
FFFE
FFFE
FFFE
ENDCHAR
STARTCHAR 216C
ENCODING 8556
SWIDTH 675 0
DWIDTH 15 0
BBX 13 15 1 0
BITMAP
FF80
FF80
FF80
1C00
1C00
1C00
1C00
1C00
1C38
1C38
1C38
1C38
FFF8
FFF8
FFF8
ENDCHAR
STARTCHAR 216D
ENCODING 8557
SWIDTH 720 0
DWIDTH 16 0
BBX 14 15 1 0
BITMAP
07DC
1FFC
3C7C
703C
701C
E000
E000
E000
E000
E01C
701C
783C
3FFC
1FFC
07DC
ENDCHAR
STARTCHAR 216E
ENCODING 8558
SWIDTH 765 0
DWIDTH 17 0
BBX 14 15 1 0
BITMAP
FFC0
FFF0
FFF8
1C3C
1C1C
1C1C
1C1C
1C1C
1C1C
1C1C
1C1C
1C3C
FFF8
FFF0
FFC0
ENDCHAR
STARTCHAR 216F
ENCODING 8559
SWIDTH 1035 0
DWIDTH 23 0
BBX 21 15 1 0
BITMAP
FE03F8
FE03F8
FF07F8
1F07E0
1F87E0
1F8EE0
1F8EE0
1DCEE0
1DDCE0
1DDCE0
1CF8E0
1CF8E0
FE7BF8
FE73F8
FE73F8
ENDCHAR
STARTCHAR 2190
ENCODING 8592
SWIDTH 1080 0
DWIDTH 24 0
BBX 22 10 0 2
BITMAP
040000
0C0000
1C0000
3C0000
7FFFFC
FFFFFC
7FFFFC
1C0000
0C0000
040000
ENDCHAR
STARTCHAR 2191
ENCODING 8593
SWIDTH 495 0
DWIDTH 11 0
BBX 10 21 1 -3
BITMAP
0800
0C00
1E00
3F00
7F80
FFC0
0C00
0C00
0C00
0C00
0C00
0C00
0C00
0C00
0C00
0C00
0C00
0C00
0C00
0C00
0C00
ENDCHAR
STARTCHAR 2192
ENCODING 8594
SWIDTH 1080 0
DWIDTH 24 0
BBX 22 11 1 1
BITMAP
000100
0000C0
0000E0
0000F0
FFFFF8
FFFFFC
FFFFF8
0000F0
0000E0
000080
000100
ENDCHAR
STARTCHAR 2193
ENCODING 8595
SWIDTH 495 0
DWIDTH 11 0
BBX 10 21 0 -3
BITMAP
0C00
0C00
0C00
0C00
0C00
0C00
0C00
0C00
0C00
0C00
0C00
0C00
0C00
0C00
0C00
FFC0
7F80
3F00
1E00
0C00
0800
ENDCHAR
STARTCHAR 2196
ENCODING 8598
SWIDTH 855 0
DWIDTH 19 0
BBX 16 16 1 0
BITMAP
FE00
FC00
F800
FC00
FE00
CF00
8780
03C0
01E0
00F0
0078
003C
001E
000F
0007
0002
ENDCHAR
STARTCHAR 2197
ENCODING 8599
SWIDTH 765 0
DWIDTH 17 0
BBX 16 16 -1 0
BITMAP
007F
003F
001F
003F
007F
00F3
01E1
03C0
0780
0F00
1E00
3C00
7800
F000
E000
4000
ENDCHAR
STARTCHAR 2198
ENCODING 8600
SWIDTH 855 0
DWIDTH 19 0
BBX 16 16 1 0
BITMAP
4000
E000
7000
3800
1C00
0E00
0700
0380
01C0
00E1
0073
003F
001F
001F
003F
007F
ENDCHAR
STARTCHAR 2199
ENCODING 8601
SWIDTH 765 0
DWIDTH 17 0
BBX 16 16 1 0
BITMAP
0002
0007
000E
001C
0038
0070
00E0
01C0
0380
8700
CE00
FC00
F800
F800
FC00
FE00
ENDCHAR
STARTCHAR 21A9
ENCODING 8617
SWIDTH 855 0
DWIDTH 19 0
BBX 19 14 0 1
BITMAP
007F00
007F80
007FC0
0000E0
0800E0
1800E0
3800E0
7FFFC0
FFFF80
FFFF00
780000
180000
080000
080000
ENDCHAR
STARTCHAR 21B0
ENCODING 8624
SWIDTH 810 0
DWIDTH 18 0
BBX 15 16 1 0
BITMAP
0400
0C00
1C00
7FFE
FFFE
7FFE
3C06
1C06
0C06
0406
0006
0006
0006
0006
0006
0006
ENDCHAR
STARTCHAR 21B1
ENCODING 8625
SWIDTH 765 0
DWIDTH 17 0
BBX 15 16 1 0
BITMAP
0040
0020
0038
FFFC
FFFE
FFFE
C038
C030
C020
C000
C000
C000
C000
C000
C000
C000
ENDCHAR
STARTCHAR 21B2
ENCODING 8626
SWIDTH 765 0
DWIDTH 17 0
BBX 15 16 0 0
BITMAP
0006
0006
0006
0006
0006
0006
0406
0C06
1C06
3C06
7FFE
FFFE
7FFE
3C00
0C00
0400
ENDCHAR
STARTCHAR 21B3
ENCODING 8627
SWIDTH 855 0
DWIDTH 19 0
BBX 15 16 2 0
BITMAP
C000
C000
C000
C000
C000
C000
C040
C060
C070
C078
FFFC
FFFE
FFFC
0078
0060
0040
ENDCHAR
STARTCHAR 21B4
ENCODING 8628
SWIDTH 810 0
DWIDTH 18 0
BBX 16 16 1 0
BITMAP
FFF8
FFF8
FFF8
0038
0038
0038
0038
0038
0038
0038
01FF
00FF
007E
007C
0038
0010
ENDCHAR
STARTCHAR 21C6
ENCODING 8646
SWIDTH 1170 0
DWIDTH 26 0
BBX 22 18 2 -1
BITMAP
080000
180000
380000
7FFFFC
FFFFFC
FFFFFC
380000
180000
080000
000040
000060
000078
FFFFFC
FFFFFC
FFFFF8
000070
000060
000080
ENDCHAR
STARTCHAR 2202
ENCODING 8706
SWIDTH 630 0
DWIDTH 14 0
BBX 12 16 1 0
BITMAP
3F00
7F80
7FC0
01E0
00E0
0070
3FF0
7FF0
F0F0
E070
E070
E0E0
F0E0
7FC0
7FC0
1F00
ENDCHAR
STARTCHAR 2206
ENCODING 8710
SWIDTH 675 0
DWIDTH 15 0
BBX 15 16 0 0
BITMAP
03C0
07C0
07C0
07E0
0EE0
0EE0
0E70
1C70
1C78
3C38
3838
381C
701C
7FFC
7FFE
FFFE
ENDCHAR
STARTCHAR 220F
ENCODING 8719
SWIDTH 675 0
DWIDTH 15 0
BBX 11 16 2 0
BITMAP
FFE0
FFE0
FFE0
E0E0
E0E0
E0E0
E0E0
E0E0
E0E0
E0E0
E0E0
E0E0
E0E0
E0E0
E0E0
E0E0
ENDCHAR
STARTCHAR 2211
ENCODING 8721
SWIDTH 585 0
DWIDTH 13 0
BBX 11 16 1 0
BITMAP
FFE0
FFE0
FFE0
7800
3C00
1E00
0F00
0780
0780
0F00
1E00
3C00
7800
FFE0
FFE0
FFE0
ENDCHAR
STARTCHAR 2212
ENCODING 8722
SWIDTH 585 0
DWIDTH 13 0
BBX 11 2 1 6
BITMAP
FFE0
FFE0
ENDCHAR
STARTCHAR 2215
ENCODING 8725
SWIDTH 450 0
DWIDTH 10 0
BBX 10 15 0 0
BITMAP
01C0
0380
0380
0700
0700
0600
0E00
0C00
1C00
1800
3800
3000
7000
6000
E000
ENDCHAR
STARTCHAR 2219
ENCODING 8729
SWIDTH 270 0
DWIDTH 6 0
BBX 4 4 1 5
BITMAP
70
F0
F0
70
ENDCHAR
STARTCHAR 221A
ENCODING 8730
SWIDTH 675 0
DWIDTH 15 0
BBX 15 19 1 0
BITMAP
003E
003E
0070
0070
0060
00E0
00E0
E0C0
E1C0
61C0
7180
7380
3380
3B00
3F00
1F00
1E00
1E00
0E00
ENDCHAR
STARTCHAR 221E
ENCODING 8734
SWIDTH 810 0
DWIDTH 18 0
BBX 17 8 1 3
BITMAP
080800
7E3E00
FFFF00
E3E700
E1C380
E3E300
FFFF00
7E7E00
ENDCHAR
STARTCHAR 222B
ENCODING 8747
SWIDTH 360 0
DWIDTH 8 0
BBX 8 20 0 -4
BITMAP
0F
1F
1F
38
38
38
38
38
38
38
38
38
38
38
38
38
38
F8
F8
E0
ENDCHAR
STARTCHAR 2248
ENCODING 8776
SWIDTH 585 0
DWIDTH 13 0
BBX 11 8 1 2
BITMAP
7800
FC60
FFE0
03C0
0000
7C00
FFE0
FFC0
ENDCHAR
STARTCHAR 2260
ENCODING 8800
SWIDTH 585 0
DWIDTH 13 0
BBX 11 11 1 1
BITMAP
00C0
01C0
FFE0
FFE0
0700
0E00
0E00
FFE0
FFE0
3800
7000
ENDCHAR
STARTCHAR 2264
ENCODING 8804
SWIDTH 540 0
DWIDTH 12 0
BBX 10 11 1 1
BITMAP
00C0
07C0
7F80
F800
FC00
7F80
07C0
00C0
0000
FFC0
FFC0
ENDCHAR
STARTCHAR 2265
ENCODING 8805
SWIDTH 540 0
DWIDTH 12 0
BBX 10 11 1 1
BITMAP
C000
F800
7F80
07C0
07C0
7F80
F800
C000
0000
FFC0
FFC0
ENDCHAR
STARTCHAR 22C5
ENCODING 8901
SWIDTH 270 0
DWIDTH 6 0
BBX 4 4 1 5
BITMAP
70
F0
F0
70
ENDCHAR
STARTCHAR 24C5
ENCODING 9413
SWIDTH 810 0
DWIDTH 18 0
BBX 16 16 1 0
BITMAP
07E0
1FF8
381C
700E
67E6
C7F3
C633
C633
C7E3
C7C3
C603
6607
6006
381C
1FF8
07E0
ENDCHAR
STARTCHAR 25A0
ENCODING 9632
SWIDTH 900 0
DWIDTH 20 0
BBX 16 16 2 0
BITMAP
FFFF
FFFF
FFFF
FFFF
FFFF
FFFF
FFFF
FFFF
FFFF
FFFF
FFFF
FFFF
FFFF
FFFF
FFFF
FFFF
ENDCHAR
STARTCHAR 25A1
ENCODING 9633
SWIDTH 900 0
DWIDTH 20 0
BBX 16 16 2 0
BITMAP
FFFF
FFFF
E007
E007
E007
E007
E007
E007
E007
E007
E007
E007
E007
E007
FFFF
FFFF
ENDCHAR
STARTCHAR 25B2
ENCODING 9650
SWIDTH 855 0
DWIDTH 19 0
BBX 18 16 0 0
BITMAP
004000
00C000
00E000
01E000
01F000
03F800
03F800
07FC00
0FFC00
0FFE00
1FFE00
1FFF00
3FFF80
7FFF80
7FFFC0
FFFFC0
ENDCHAR
STARTCHAR 25B3
ENCODING 9651
SWIDTH 855 0
DWIDTH 19 0
BBX 18 16 0 0
BITMAP
004000
00C000
00E000
01E000
01F000
03B000
033800
071C00
0E1C00
0E0E00
1C0E00
1C0700
380380
700380
7FFFC0
FFFFC0
ENDCHAR
STARTCHAR 25CA
ENCODING 9674
SWIDTH 630 0
DWIDTH 14 0
BBX 12 16 1 0
BITMAP
0F00
1F00
1F80
3F80
39C0
71E0
70E0
E0F0
E0F0
F0E0
71E0
39C0
3F80
1F80
1F00
0F00
ENDCHAR
STARTCHAR 25CB
ENCODING 9675
SWIDTH 810 0
DWIDTH 18 0
BBX 16 16 1 0
BITMAP
07E0
1FF8
3FFC
781E
700E
E007
E007
C003
C003
E007
E007
700E
781E
3FFC
1FF8
07E0
ENDCHAR
STARTCHAR 25CF
ENCODING 9679
SWIDTH 810 0
DWIDTH 18 0
BBX 16 16 1 0
BITMAP
07E0
1FF8
3FFC
7FFE
7FFE
FFFF
FFFF
FFFF
FFFF
FFFF
FFFF
7FFE
7FFE
3FFC
1FF8
07E0
ENDCHAR
STARTCHAR 262E
ENCODING 9774
SWIDTH 810 0
DWIDTH 18 0
BBX 16 16 1 0
BITMAP
07E0
1FF8
3FFC
799E
718E
E187
E183
C3C3
C7E3
FFFF
FDBF
799E
799E
3FFC
1FF8
07E0
ENDCHAR
STARTCHAR 2713
ENCODING 10003
SWIDTH 945 0
DWIDTH 21 0
BBX 19 16 1 0
BITMAP
000040
0000E0
0001E0
0003C0
000780
000700
000E00
001C00
C03800
E07000
70E000
39C000
1F8000
0F0000
0E0000
040000
ENDCHAR
STARTCHAR 2715
ENCODING 10005
SWIDTH 765 0
DWIDTH 17 0
BBX 15 16 1 0
BITMAP
4004
E00E
F01E
783C
3C78
1EF0
0FE0
07C0
07C0
0FE0
1EF0
3C78
783C
F01E
E00E
4004
ENDCHAR
STARTCHAR 2780
ENCODING 10112
SWIDTH 810 0
DWIDTH 18 0
BBX 16 16 1 0
BITMAP
07E0
1FF8
381C
700E
61C6
C3C3
C7C3
C1C3
C1C3
C1C3
C1C3
61C6
7006
381C
1FF8
07E0
ENDCHAR
STARTCHAR 2781
ENCODING 10113
SWIDTH 810 0
DWIDTH 18 0
BBX 16 16 1 0
BITMAP
07E0
0FF8
381C
300E
63C6
C7E3
C663
C0E3
C3C3
C703
C7E3
67E7
7006
381C
1FF8
07E0
ENDCHAR
STARTCHAR 2782
ENCODING 10114
SWIDTH 810 0
DWIDTH 18 0
BBX 16 16 1 0
BITMAP
07E0
1FF8
381C
700E
67E6
C7E3
C0C3
C1C3
C063
C663
C7E3
63C6
700E
381C
1FF8
07E0
ENDCHAR
STARTCHAR 2783
ENCODING 10115
SWIDTH 810 0
DWIDTH 18 0
BBX 16 16 1 0
BITMAP
07E0
1FF8
381C
7006
61C7
C3C3
C7C3
CEC3
CFF3
CFF3
C0C3
60C6
700E
381C
1FF8
07E0
ENDCHAR
STARTCHAR 2784
ENCODING 10116
SWIDTH 810 0
DWIDTH 18 0
BBX 16 16 1 0
BITMAP
07E0
1FF8
381C
7006
63E7
C3E3
C603
C7E3
C263
C663
C7E3
63C6
700E
381C
1FF8
07E0
ENDCHAR
STARTCHAR 2785
ENCODING 10117
SWIDTH 810 0
DWIDTH 18 0
BBX 16 16 1 0
BITMAP
07E0
1FF8
381C
700E
61E6
C7E3
C603
CFE3
CE63
CE63
C7E3
63C6
700E
381C
1FF8
07E0
ENDCHAR
STARTCHAR 2786
ENCODING 10118
SWIDTH 810 0
DWIDTH 18 0
BBX 16 16 1 0
BITMAP
07E0
1FF8
381C
7006
67E7
C7E3
C0E3
C0C3
C183
C183
C383
6306
7006
381C
1FF8
07E0
ENDCHAR
STARTCHAR 2787
ENCODING 10119
SWIDTH 810 0
DWIDTH 18 0
BBX 16 16 1 0
BITMAP
07E0
1FF8
381C
700E
63C6
C7E3
C663
C3E3
C7E3
C673
C7E3
63C6
700E
381C
1FF8
07E0
ENDCHAR
STARTCHAR 2788
ENCODING 10120
SWIDTH 810 0
DWIDTH 18 0
BBX 16 16 1 0
BITMAP
07E0
1FF8
381C
700E
63C6
C7E3
C673
C673
C3F3
C063
C7E3
6786
700E
381C
1FF8
07E0
ENDCHAR
STARTCHAR E000
ENCODING 57344
SWIDTH 765 0
DWIDTH 17 0
BBX 16 16 0 0
BITMAP
0FFF
0FFF
0FFF
0C00
0C00
0C00
0C00
0C00
0C00
0C00
FFC0
7F80
3F00
1E00
0C00
0800
ENDCHAR
STARTCHAR E001
ENCODING 57345
SWIDTH 1125 0
DWIDTH 25 0
BBX 23 16 1 0
BITMAP
007C00
01FE00
07FC00
070060
0E0070
0C00F8
1C01FC
1C03FE
FF8070
7F0060
3E00E0
1C00E0
0801C0
00FF80
00FF00
007C00
ENDCHAR
STARTCHAR E002
ENCODING 57346
SWIDTH 945 0
DWIDTH 21 0
BBX 19 16 1 0
BITMAP
07E000
1FE000
3FE000
780300
700780
E00FC0
E00FC0
E01FE0
E00300
E00300
E00700
700700
781E00
3FFC00
1FF800
07E000
ENDCHAR
STARTCHAR FB00
ENCODING 64256
SWIDTH 675 0
DWIDTH 15 0
BBX 15 17 0 0
BITMAP
060C
1F3E
1F3E
3878
3870
3870
FFFE
FFFE
FFFE
3870
3870
3870
3870
3870
3870
3870
3870
ENDCHAR
STARTCHAR FB01
ENCODING 64257
SWIDTH 630 0
DWIDTH 14 0
BBX 13 17 0 0
BITMAP
0600
1F30
1F78
3830
3800
3800
FFF0
FFF0
FFF0
3870
3870
3870
3870
3870
3870
3870
3870
ENDCHAR
STARTCHAR FB02
ENCODING 64258
SWIDTH 630 0
DWIDTH 14 0
BBX 12 16 0 0
BITMAP
0F70
1F70
3F70
3870
3870
FFF0
FFF0
FFF0
3870
3870
3870
3870
3870
3870
3870
3870
ENDCHAR
STARTCHAR FB03
ENCODING 64259
SWIDTH 945 0
DWIDTH 21 0
BBX 20 17 0 0
BITMAP
060C60
1F3EF0
1F3EF0
387860
387000
387000
FFFFF0
FFFFF0
FFFFF0
387070
387070
387070
387070
387070
387070
387070
387070
ENDCHAR
STARTCHAR FB04
ENCODING 64260
SWIDTH 945 0
DWIDTH 21 0
BBX 20 16 0 0
BITMAP
0F1E70
1F3E70
3F3E70
387070
387070
FFFFF0
FFFFF0
FFFFF0
387070
387070
387070
387070
387070
387070
387070
387070
ENDCHAR
STARTCHAR FEFF
ENCODING 65279
SWIDTH 0 0
DWIDTH 0 0
BBX 0 0 0 0
BITMAP
ENDCHAR
ENDFONT
